<!--?xml version="1.0" encoding="UTF-8" standalone="no"?-->
<!-- Created with Inkscape (http://www.inkscape.org/) -->

<svg xmlns:dc="http://purl.org/dc/elements/1.1/" xmlns:cc="http://creativecommons.org/ns#" xmlns:rdf="http://www.w3.org/1999/02/22-rdf-syntax-ns#" xmlns:svg="http://www.w3.org/2000/svg" xmlns="http://www.w3.org/2000/svg" xmlns:sodipodi="http://sodipodi.sourceforge.net/DTD/sodipodi-0.dtd" xmlns:inkscape="http://www.inkscape.org/namespaces/inkscape" width="210mm" height="297mm" viewBox="0 0 210 297" version="1.1" id="svg43" inkscape:version="0.92.3 (2405546, 2018-03-11)" sodipodi:docname="socaity.svg" style="">
  <defs id="defs37"></defs>
  <sodipodi:namedview id="base" pagecolor="#ffffff" bordercolor="#666666" borderopacity="1.0" inkscape:pageopacity="0.0" inkscape:pageshadow="2" inkscape:zoom="0.35" inkscape:cx="400" inkscape:cy="560" inkscape:document-units="mm" inkscape:current-layer="layer1" showgrid="false" showborder="false" inkscape:window-width="1366" inkscape:window-height="706" inkscape:window-x="-8" inkscape:window-y="-8" inkscape:window-maximized="1"></sodipodi:namedview>
  <metadata id="metadata40">
    <rdf:rdf>
      <cc:work rdf:about="">
        <dc:format>image/svg+xml</dc:format>
        <dc:type rdf:resource="http://purl.org/dc/dcmitype/StillImage"></dc:type>
        <dc:title></dc:title>
      </cc:work>
    </rdf:rdf>
  </metadata>
  <g inkscape:label="Layer 1" inkscape:groupmode="layer" id="layer1">
    <path style="font-style:normal;font-variant:normal;font-weight:normal;font-stretch:normal;font-size:medium;line-height:1.25;font-family:'Levenim MT';-inkscape-font-specification:'Levenim MT';letter-spacing:0px;word-spacing:0px;fill:#FFFFFF;fill-opacity:1;stroke:#FF0000;stroke-width:3.45565271" d="m -135.92099,27.224768 c -4.51201,0 -8.67867,0.989683 -12.50007,2.968502 -8.1032,4.221485 -12.1554,10.817693 -12.1554,19.788354 0,5.276854 1.79605,10.223826 5.38725,14.84107 2.67036,3.429971 8.17219,8.091398 16.50559,13.983894 8.14925,5.804538 13.72035,10.751517 16.713,14.841085 2.30205,3.122129 3.45273,6.309833 3.45273,9.563897 0,2.85829 -0.78243,5.56265 -2.34783,8.11315 -3.40703,5.58466 -8.88625,8.37751 -16.43695,8.37751 -7.96507,0 -14.98583,-5.34329 -21.06323,-16.02892 l -8.63254,4.94726 c 7.82695,13.67585 18.04743,20.51373 30.66264,20.51373 7.7809,0 14.48009,-2.48428 20.09708,-7.45331 5.80117,-5.10097 8.70193,-11.32316 8.70193,-18.6668 0,-6.112359 -2.50918,-12.092885 -7.52763,-17.941394 -3.40704,-3.913681 -8.56396,-8.311153 -15.4701,-13.192234 -7.50467,-5.320838 -11.87842,-8.553137 -13.12153,-9.696452 -4.2818,-4.045596 -6.42273,-8.24526 -6.42273,-12.598677 0,-3.693792 1.3811,-6.683698 4.14355,-8.970337 2.62434,-2.242665 5.89335,-3.363975 9.80682,-3.363975 3.91348,0 7.48147,1.209057 10.70432,3.627615 2.16392,1.627029 4.78833,4.375273 7.87308,8.244958 l 8.28711,-6.001836 c -8.10321,-10.59768 -16.98851,-15.89709 -26.65709,-15.89709 z m 377.41982,1.056013 v 26.648107 h -13.19091 v 7.915052 h 13.19091 v 63.84986 h 9.73818 V 62.84394 h 15.33133 V 54.928888 H 251.23701 V 28.280781 Z M 136.93995,29.665987 88.942851,126.6938 h 11.325769 l 15.88414,-31.925292 h 43.78492 l 15.95278,31.925292 h 10.91173 L 139.42655,29.665987 Z m 64.22743,0 V 126.6938 h 10.15148 V 29.665987 Z M 138.18287,50.245263 155.44871,85.4027 h -34.73832 z m -190.263554,2.836686 c -11.60231,0 -21.20227,4.023461 -28.799017,12.070669 -6.906124,7.299648 -10.358887,15.91838 -10.358887,25.856458 0,10.597684 3.752478,19.502674 11.257138,26.714384 7.550703,7.21171 16.850951,10.81729 27.900766,10.81729 11.049816,0 20.326716,-3.60558 27.831384,-10.81729 7.504657,-7.25569 11.257136,-16.16067 11.257136,-26.714384 0,-9.982054 -3.452756,-18.623077 -10.358891,-25.922726 -7.596748,-8.003233 -17.173362,-12.004401 -28.729629,-12.004401 z m 95.511515,0 c -7.919033,0 -15.078338,1.670807 -21.478023,5.012819 -6.399686,3.341996 -11.440649,7.981146 -15.1239197,13.917609 -3.6372246,5.936463 -5.4558541,12.400324 -5.4558541,19.392168 0,10.817535 4.074033,19.766415 12.2232658,26.846185 7.919037,6.85994 17.610871,10.29002 29.075053,10.29002 15.884103,0 27.601663,-5.40874 35.152374,-16.22628 l -7.66566,-4.81546 c -6.998213,8.39898 -16.022846,12.59868 -27.072658,12.59868 -6.031357,0 -11.463903,-1.27522 -16.298198,-3.8257 -4.834294,-2.55049 -8.655299,-6.1122 -11.463796,-10.68547 -2.808497,-4.61725 -4.21295,-9.564236 -4.21295,-14.841093 0,-8.398989 3.13046,-15.369213 9.392022,-20.909913 6.123438,-5.364789 13.628399,-8.046868 22.514292,-8.046868 11.464181,0 20.511402,4.199672 27.141288,12.598677 l 7.66566,-4.551809 C 75.567717,66.229666 72.82811,63.26134 69.605242,60.930732 62.376825,55.697853 53.651909,53.081949 43.430831,53.081949 Z m 229.628869,1.846939 30.87078,66.355922 -14.50319,31.66164 h 10.22163 L 344.46933,54.928888 H 334.17908 L 309.11034,110.20387 283.28133,54.928888 Z m -325.140384,7.189666 c 8.241323,0 15.170192,2.879869 20.787181,8.640438 5.663031,5.716593 8.494514,12.532899 8.494514,20.448175 0,5.18891 -1.311817,10.025843 -3.936144,14.511173 -5.478872,9.3664 -13.927408,14.04943 -25.345551,14.04943 -5.340741,0 -10.267239,-1.23135 -14.779246,-3.69388 -4.512006,-2.46253 -8.079987,-5.98038 -10.704315,-10.55365 -2.532246,-4.44135 -3.798142,-9.212108 -3.798142,-14.313073 0,-7.915276 2.808146,-14.731582 8.425141,-20.448175 5.663024,-5.760569 12.615247,-8.640438 20.856562,-8.640438 z" id="path49" inkscape:connector-curvature="0" class="BDusdcuE_0"></path>
  </g>
<style data-made-with="vivus-instant">.BDusdcuE_0{stroke-dasharray:2547 2549;stroke-dashoffset:2548;animation:BDusdcuE_draw 6840ms ease-in-out 0ms forwards;}@keyframes BDusdcuE_draw{100%{stroke-dashoffset:0;}}@keyframes BDusdcuE_fade{0%{stroke-opacity:1;}96.7479674796748%{stroke-opacity:1;}100%{stroke-opacity:0;}}</style></svg>
